<?xml version="1.0" encoding="utf-8"?>
<svg xmlns="http://www.w3.org/2000/svg" viewBox="685.3217 156.0225 224.992 23" width="224.992px" height="23px"><defs><clipPath id="clip0_1000_297"><rect width="225" height="23" fill="white"/></clipPath></defs><g clip-path="url(#clip0_1000_297)" transform="matrix(1, 0, 0, 1, 685.3217163085938, 156.0224609375)" id="object-0"><path fill-rule="evenodd" clip-rule="evenodd" d="M27.0503 10.2097H7.62648C5.44318 9.94711 4.97641 8.69304 6.22616 6.46067C6.82845 5.64651 7.95021 4.58941 9.60651 3.28282C12.4598 1.20146 16.1489 0.164062 20.6811 0.164062H42.4087L40.647 3.34191H27.374C23.9184 3.34191 21.3888 4.22829 19.7852 6.00762C19.2808 6.9137 19.7852 7.37331 21.2984 7.37331H33.9616C36.9128 7.37331 37.5828 8.83092 35.9792 11.7461C34.7295 13.2234 33.412 14.3593 32.0192 15.1538C30.8899 15.9089 29.482 16.4866 27.7956 16.8872C26.1017 17.2877 24.0991 17.4846 21.7727 17.4846H0L1.79934 14.3068H21.1855C24.1593 14.3068 26.32 13.683 27.6601 12.4355L28.3076 11.3259C28.6915 10.5906 28.2699 10.2163 27.0503 10.2163V10.2097ZM55.0341 7.42584H66.5454L70.6184 0.164062H78.4632L68.7136 17.4846H60.8688L64.9343 10.2754H53.423L49.3576 17.4846H36.047L45.7965 0.164062H59.1071L55.0417 7.4324L55.0341 7.42584ZM89.4324 12.5931L85.4271 17.4781H72.1166L86.3757 0.164062H103.285C105.227 0.164062 106.138 0.853472 106.018 2.23886L104.791 17.4846H96.9459L97.3148 12.5997H89.4399L89.4324 12.5931ZM91.8415 9.69761H97.5256L97.9322 3.28282H97.1416L91.8415 9.69761ZM140.439 14.3528L138.677 17.4781H116.663C111.747 17.4781 109.142 16.4669 108.856 14.4381C108.713 13.5649 108.901 12.5537 109.436 11.3981L115.767 0.164062H129.078L122.746 11.4047C122.265 12.3108 122.347 13.033 122.98 13.5649C123.612 14.0967 124.877 14.3593 126.774 14.3593H140.446L140.439 14.3528ZM157.039 17.4781H150.783C145.867 17.4781 143.262 16.4669 142.976 14.4381C142.833 13.5649 143.021 12.5537 143.548 11.3981L145.415 8.07585C145.965 7.28139 146.529 6.55915 147.109 5.9157C147.681 5.27226 148.321 4.67477 149.014 4.12981C152.349 1.49692 156.279 0.18376 160.811 0.18376H171.637C176.215 0.18376 178.661 1.49692 178.978 4.12981C179.121 5.2066 178.835 6.52632 178.112 8.07585L176.245 11.3981C175.861 11.9825 175.432 12.5275 174.965 13.033C174.498 13.532 173.986 14.0048 173.437 14.4381C170.824 16.4604 167.03 17.4781 162.068 17.4781H157.032H157.039ZM168.302 11.5163L171.396 6.03389C171.758 4.23486 170.463 3.33534 167.512 3.33534C164.056 3.33534 161.519 4.23486 159.885 6.03389L156.866 11.3981C155.857 13.2169 157.205 14.2017 160.894 14.3528C164.824 14.2017 167.293 13.2563 168.302 11.5163ZM189.744 7.03189L193.41 13.7881C193.696 14.3002 194.133 14.5563 194.705 14.5563C195.277 14.5563 196.015 14.2937 196.896 13.7618L208.302 7.03189L202.399 17.4781H210.026L219.783 0.164062H210.432C207.797 0.164062 205.576 0.676195 203.777 1.70046L201.082 3.28938L200.253 1.70046C199.606 0.676195 197.965 0.164062 195.322 0.164062H185.972L176.222 17.4846H183.849L189.751 7.03846L189.744 7.03189Z" style="fill: rgb(255, 255, 255);"/><path fill-rule="evenodd" clip-rule="evenodd" d="M210.039 23.0006C189.343 20.3283 160.84 20.3743 140.023 23.0006C156.647 18.9692 193.424 18.9627 210.039 23.0006Z" style="fill: rgb(255, 255, 255);"/><path fill-rule="evenodd" clip-rule="evenodd" d="M222.771 0C223.14 0 223.516 0.0787896 223.863 0.242935C224.216 0.420211 224.495 0.663146 224.698 0.971738C224.901 1.28033 224.992 1.62175 224.992 1.95661C224.992 2.29146 224.901 2.60662 224.698 2.92835C224.51 3.23694 224.231 3.47987 223.885 3.63745C223.531 3.81473 223.162 3.89352 222.771 3.89352C222.379 3.89352 222.01 3.81473 221.657 3.63745C221.288 3.47331 221.009 3.23037 220.821 2.92835C220.618 2.60662 220.527 2.27833 220.527 1.95661C220.527 1.61519 220.618 1.27377 220.821 0.971738C221.024 0.663146 221.303 0.420211 221.657 0.242935C222.026 0.0787896 222.379 0 222.771 0ZM222.771 0.321724C222.455 0.321724 222.138 0.387382 221.845 0.53183C221.551 0.663146 221.31 0.873251 221.137 1.12932C220.972 1.38538 220.896 1.66115 220.896 1.95661C220.896 2.23237 220.972 2.50814 221.137 2.7642C221.303 3.02027 221.544 3.21724 221.845 3.36169C222.138 3.50614 222.44 3.57179 222.771 3.57179C223.087 3.57179 223.403 3.50614 223.697 3.36169C223.99 3.21724 224.216 3.02027 224.382 2.7642C224.548 2.50814 224.623 2.23237 224.623 1.95661C224.623 1.66771 224.548 1.39195 224.382 1.12932C224.216 0.873251 223.975 0.663146 223.674 0.53183C223.381 0.387382 223.064 0.321724 222.763 0.321724H222.771ZM221.785 3.02683V0.925778H222.598C222.891 0.925778 223.102 0.958607 223.208 0.991436C223.336 1.02426 223.448 1.10305 223.524 1.18841C223.599 1.30003 223.637 1.39852 223.637 1.51013C223.637 1.65458 223.561 1.7859 223.448 1.89752C223.32 2.00913 223.155 2.07479 222.944 2.09449C223.019 2.12732 223.095 2.16015 223.147 2.20611C223.238 2.2849 223.351 2.43591 223.501 2.62632L223.795 3.0334H223.313L223.11 2.71168C222.944 2.45561 222.793 2.29146 222.703 2.22581C222.628 2.17985 222.515 2.14702 222.387 2.14702H222.161V3.03997H221.77L221.785 3.02683ZM222.176 1.84499H222.643C222.869 1.84499 223.034 1.81216 223.11 1.7662C223.185 1.70054 223.238 1.62175 223.238 1.52327C223.238 1.45761 223.223 1.41165 223.162 1.35912C223.125 1.31316 223.072 1.28033 223.012 1.2475C222.936 1.23437 222.808 1.21467 222.605 1.21467H222.176V1.84499Z" style="fill: rgb(255, 255, 255);"/></g></svg>